<?xml version="1.0" encoding="utf-8"?>
<!-- Generator: Adobe Illustrator 20.1.0, SVG Export Plug-In . SVG Version: 6.00 Build 0)  -->
<!DOCTYPE svg PUBLIC "-//W3C//DTD SVG 1.1//EN" "http://www.w3.org/Graphics/SVG/1.1/DTD/svg11.dtd">
<svg version="1.1" id="Ebene_1" xmlns="http://www.w3.org/2000/svg" xmlns:xlink="http://www.w3.org/1999/xlink" x="0px" y="0px"
	 viewBox="0 0 128 128" style="enable-background:new 0 0 128 128;" xml:space="preserve">
<style type="text/css">
	.st0{fill:#FFFFFF;}
</style>
<path class="st0" d="M50,47.6h18.4V56h0.3c2.6-4.9,8.8-10,18.2-10c19.4,0,23,12.8,23,29.4v33.9H90.7v-30c0-7.2-0.1-16.4-10-16.4
	c-10,0-11.5,7.8-11.5,15.8v30.5H50V47.6z"/>
<path class="st0" d="M19.5,47.6h19.1v61.3H19.5V47.6z M29,17.1c6.1,0,11,4.9,11,11c0,6.1-5,11-11,11c-6.1,0-11-4.9-11-11
	C18,22,22.9,17.1,29,17.1"/>
<path class="st0" d="M50.5,47.6h18.3v8.4H69c2.5-4.8,8.8-9.9,18-9.9c19.3,0,22.8,12.7,22.8,29.2v33.6h-19V79
	c0-7.1-0.1-16.2-9.9-16.2c-9.9,0-11.4,7.7-11.4,15.7v30.3h-19V47.6z"/>
</svg>
