<?xml version="1.0" encoding="utf-8"?>
<!-- Generator: Adobe Illustrator 20.1.0, SVG Export Plug-In . SVG Version: 6.00 Build 0)  -->
<!DOCTYPE svg PUBLIC "-//W3C//DTD SVG 1.1//EN" "http://www.w3.org/Graphics/SVG/1.1/DTD/svg11.dtd">
<svg version="1.1" id="Ebene_1" xmlns="http://www.w3.org/2000/svg" xmlns:xlink="http://www.w3.org/1999/xlink" x="0px" y="0px"
	 viewBox="0 0 128 128" style="enable-background:new 0 0 128 128;" xml:space="preserve">
<style type="text/css">
	.st0{fill:#FFFFFF;}
</style>
<path class="st0" d="M121.2,88c0-0.9-0.6-2.2-1.3-3c-2-2.5-6.8-4.2-14.4-5.2c-5.1-0.7-11.3-0.9-17.9-0.8c-2.7-2-5.5-4.2-7.6-6.7
	c-5.6-6.6-9.9-15.5-12.1-24.8c0.3-0.8,0.6-1.5,0.8-2.3c0,0,5.9-19.8,5.8-26.7c0-1-0.1-1.2-0.2-2l-0.2-0.8c-0.7-2.3-2.3-4.9-5.3-5.2
	L67,10.2l0,0c-3.3-0.4-6.2,1-7.2,3.4c-3.1,7.7-2.3,19.9-0.1,35.8l-1.3,2.4c-3.7,6.7-8.2,13.4-12.1,19.2l-0.5,0.8
	c-4.1,6.2-7.8,11.4-11.2,15.8l-3,1.2c-0.2,0.1-5.4,2.1-6.6,2.7C14.4,96.1,7.2,101.9,5.5,107c-0.5,1.6-0.5,3.8,1.1,5l2.6,1.7
	c1.1,0.7,2.4,1.2,3.6,1.3c6.9,0.8,16-6.9,29.4-24.9c13.3-2.7,28.3-4.4,41.3-4.8c9.1,6.6,20.6,11.9,28.2,12.7c1.3,0.2,2.5,0.2,3.5,0
	c1.5-0.2,2.8-0.9,3.7-1.9C120.5,94.2,121.2,91.2,121.2,88z M12,109.7c1.7-3.3,7.5-9.5,15.6-14.7c0.5-0.3,1.8-1.3,2.9-2.1
	C21.3,104.2,15.6,108.5,12,109.7z M67.7,13.9c2.2,0.3,2.8,6,2.3,11.3c-0.5,5.3-2.2,8.8-4,11.4c-0.8-4.2-0.6-10.7-0.2-14.8
	C65.8,21.8,66.7,13.8,67.7,13.9z M46.1,84.3C48,81.7,50,79,52,76c4.9-7.1,8.2-12.8,10.6-17.5c3,7.3,7,13.7,11.9,19
	c0.6,0.7,1.3,1.3,2,2C65,80.5,55,82,46.1,84.3z M116.8,92c-0.7,0.3-2.7,0.4-4,0.2c-4.1-0.5-8.9-2.9-15.5-6.8
	c2.7,0.1,5.2,0.3,7.4,0.6c4.1,0.5,5.3,0.6,9.1,2.1C117.8,89.6,117.6,91.7,116.8,92z"/>
</svg>
