<?xml version="1.0" encoding="utf-8"?>
<!-- Generator: Adobe Illustrator 20.1.0, SVG Export Plug-In . SVG Version: 6.00 Build 0)  -->
<!DOCTYPE svg PUBLIC "-//W3C//DTD SVG 1.1//EN" "http://www.w3.org/Graphics/SVG/1.1/DTD/svg11.dtd">
<svg version="1.1" id="Ebene_1" xmlns="http://www.w3.org/2000/svg" xmlns:xlink="http://www.w3.org/1999/xlink" x="0px" y="0px"
	 viewBox="0 0 128 128" style="enable-background:new 0 0 128 128;" xml:space="preserve">
<style type="text/css">
	.st0{fill:#FFFFFF;}
</style>
<path class="st0" d="M48.3,99.1c32.8,0,50.8-27.2,50.8-50.8c0-0.8,0-1.5-0.1-2.3c3.5-2.5,6.5-5.7,8.9-9.2c-3.2,1.4-6.6,2.4-10.2,2.8
	c3.7-2.2,6.5-5.7,7.8-9.9c-3.4,2-7.3,3.5-11.3,4.3c-3.3-3.5-7.9-5.6-13-5.6c-9.9,0-17.8,8-17.8,17.8c0,1.4,0.2,2.8,0.5,4.1
	c-14.8-0.7-28-7.8-36.8-18.6c-1.5,2.6-2.4,5.7-2.4,9c0,6.2,3.2,11.7,7.9,14.9c-2.9-0.1-5.7-0.9-8.1-2.2c0,0.1,0,0.1,0,0.2
	c0,8.6,6.2,15.9,14.3,17.5c-1.5,0.4-3.1,0.6-4.7,0.6c-1.1,0-2.3-0.1-3.4-0.3c2.3,7.1,8.9,12.2,16.7,12.4c-6.1,4.8-13.8,7.6-22.2,7.6
	c-1.4,0-2.9-0.1-4.3-0.2C28.9,96.1,38.3,99.1,48.3,99.1"/>
</svg>
