<?xml version="1.0" encoding="utf-8"?>
<!-- Generator: Adobe Illustrator 20.1.0, SVG Export Plug-In . SVG Version: 6.00 Build 0)  -->
<!DOCTYPE svg PUBLIC "-//W3C//DTD SVG 1.1//EN" "http://www.w3.org/Graphics/SVG/1.1/DTD/svg11.dtd">
<svg version="1.1" id="Ebene_1" xmlns="http://www.w3.org/2000/svg" xmlns:xlink="http://www.w3.org/1999/xlink" x="0px" y="0px"
	 viewBox="0 0 128 128" style="enable-background:new 0 0 128 128;" xml:space="preserve">
<style type="text/css">
	.st0{fill:#FFFFFF;}
</style>
<path class="st0" d="M29.9,35.3c-0.8,0-1.6,0.3-1.9,0.9c-0.4,0.6-0.3,1.4,0.1,2.1l9.5,16.4c0,0,0,0.1,0,0.1L22.6,81
	c-0.4,0.8-0.4,1.5,0,2.1c0.4,0.6,1,1,1.8,1h14c2.1,0,3.1-1.4,3.8-2.7c0,0,14.5-25.7,15.1-26.7c-0.1-0.1-9.6-16.8-9.6-16.8
	c-0.7-1.2-1.7-2.6-3.9-2.6H29.9z"/>
<path id="path19375" class="st0" d="M88.6,16.2c-2.1,0-3,1.3-3.7,2.7c0,0-30.1,53.4-31.1,55.2c0.1,0.1,19.9,36.4,19.9,36.4
	c0.7,1.2,1.8,2.7,3.9,2.7h14c0.8,0,1.5-0.3,1.9-0.9c0.4-0.6,0.4-1.4,0-2.2L73.6,74c0,0,0-0.1,0-0.1l31-54.7c0.4-0.8,0.4-1.6,0-2.2
	c-0.4-0.6-1-0.9-1.9-0.9H88.6z"/>
</svg>
