<svg viewBox="0 0 126 40" version="1.1" xmlns="http://www.w3.org/2000/svg" xmlns:xlink="http://www.w3.org/1999/xlink">
<title>AlaskaAirlines-logo</title>
<desc>Created using Figma</desc>
<g id="Canvas" transform="translate(-496 -1858)">
<g id="AlaskaAirlines-logo">
<g id="Vector">
<use xlink:href="#path0_fill" transform="translate(579.868 1859.97)" fill="#0F2B51"/>
</g>
<g id="Vector">
<use xlink:href="#path1_fill" transform="translate(598.477 1873.06)" fill="#0F2B51"/>
</g>
<g id="Vector">
<use xlink:href="#path2_fill" transform="translate(552.428 1873.06)" fill="#0F2B51"/>
</g>
<g id="Vector">
<use xlink:href="#path3_fill" transform="translate(541.424 1860.01)" fill="#0F2B51"/>
</g>
<g id="Vector">
<use xlink:href="#path4_fill" transform="translate(563.631 1872.85)" fill="#0F2B51"/>
</g>
<g id="Vector">
<use xlink:href="#path5_fill" transform="translate(496 1858)" fill="#0F2B51"/>
</g>
</g>
</g>
<defs>
<path id="path0_fill" d="M 27.0327 12.8667C 26.2226 12.7714 25.7937 12.7237 24.9836 12.7237C 24.1735 12.7237 23.3633 12.7714 22.5532 12.819C 21.6478 12.9143 21.0759 12.9143 20.3135 13.5339C 19.9799 13.7721 18.5026 14.7252 17.4542 15.4877C 16.5011 16.1548 15.6433 16.822 14.6426 17.4892C 14.0707 17.8704 13.4036 18.2993 12.6887 18.7282C 12.8794 18.4423 12.8794 18.3946 12.927 18.2993C 13.7371 17.1079 14.452 16.0595 15.3097 14.8682C 15.7386 14.2963 16.2628 13.5815 16.6441 13.0097C 17.3589 11.9613 19.1698 9.38792 19.9322 8.33952C 20.647 7.33878 21.5048 6.38569 22.2196 5.4326C 23.411 3.86001 24.3641 2.1921 25.6984 0.76247C 25.8414 0.619507 25.9367 0.333581 25.8414 0.190618C 25.6984 0 25.4601 -0.0476545 25.2219 0.0476543C 23.5063 0.42889 22.2196 0.571853 20.2658 1.09605C 19.2651 1.28667 18.3596 1.5726 18.026 1.71556C 17.8831 1.76321 17.7878 2.04914 17.8354 2.14445C 17.8831 2.28741 17.8831 2.38272 18.2167 2.43037C 18.5026 2.47803 18.6932 2.38272 19.0744 2.28741C 19.2174 2.23976 19.6463 2.14445 19.7893 2.1921C 19.7893 2.33507 19.551 2.7163 19.4557 2.85926C 18.5026 4.33655 17.5018 5.76618 16.5011 7.24347C 16.0722 7.91063 15.6433 8.57779 15.2144 9.24496C 14.5949 10.1504 12.927 12.4855 12.3075 13.3909C 11.831 14.1057 11.3068 14.8682 10.8302 15.583C 10.4013 16.2502 9.87714 16.9173 9.44825 17.6321C 8.92405 18.4423 8.39985 19.3 7.87565 20.1102C 7.3038 20.9679 6.6843 21.8257 6.11244 22.6835C 4.92108 24.542 3.77737 26.4005 2.58601 28.2591C 2.01416 29.2122 1.44231 30.1652 0.8228 31.0707C 0.441565 31.6425 0.107986 32.262 0.0126769 32.9292C -0.0349775 33.1675 0.0603327 33.4534 0.155642 33.5964C 0.203296 33.6917 0.536875 33.6917 0.727493 33.5964C 2.10947 32.9769 3.49145 32.3097 4.87343 31.7378C 5.6359 31.4043 5.82652 31.2613 6.58899 30.9277C 6.87491 30.7847 7.01787 30.5941 7.01787 30.4035C 7.01787 30.0699 6.68429 30.0223 6.44602 30.0699C 6.01713 30.1176 5.58824 30.3559 5.6359 30.2606C 7.3038 27.4966 8.78109 24.7803 10.7349 22.3976C 10.7826 22.5405 10.7826 22.6835 10.8302 22.8265C 10.9255 23.3983 11.0208 23.9702 11.1638 24.542L 13.0223 33.1198C 13.2606 34.0252 13.4989 35.0736 13.7848 35.9791C 14.1184 37.0275 14.309 37.5517 15.3097 37.6946C 15.3097 37.6946 16.6441 37.9329 17.2636 37.9329C 20.0275 37.8853 19.551 37.2658 19.551 37.2658C 19.3127 36.6939 18.8362 36.0744 18.5502 35.5025C 17.9784 34.3588 17.6925 34.1206 17.4542 33.2151L 14.6902 24.9709C 14.3567 23.8749 14.0707 22.7788 13.7848 21.6828C 13.7371 21.4445 13.6895 21.1586 13.6418 20.8726L 14.7379 20.4437C 14.8809 20.3484 15.5957 20.0149 15.691 19.9672C 17.0253 19.2524 18.3596 18.5852 19.6463 17.8704C 20.5994 17.2986 22.6009 15.9642 23.6016 15.3924C 24.4594 14.9158 25.1265 14.6299 26.0796 14.201C 26.5562 14.0104 26.9374 13.9151 27.271 13.4385C 27.414 13.2479 27.3187 12.9143 27.0327 12.8667Z"/>
<path id="path1_fill" d="M 4.75495 15.5026C 4.42137 15.4073 4.46903 14.8354 4.65965 14.3112C 4.89792 13.5011 5.32681 12.8816 5.70804 12.2144C 6.08928 11.4996 6.56582 10.7848 7.04237 10.1176C 7.28064 9.78404 8.71026 7.54428 9.32977 6.87712C 10.1876 5.92403 11.1883 4.97095 12.1414 4.35144C 12.6656 4.01786 12.9515 3.73193 13.5234 3.446C 13.714 3.35069 14.1905 3.20773 14.3335 3.16008C 15.2866 2.8265 16.192 2.68353 17.0974 2.87415C 17.1451 2.87415 17.2404 2.87415 17.2881 2.92181C 17.4787 2.96946 17.1927 3.25539 17.1927 3.25539C 13.3327 7.83021 5.2315 15.6932 4.75495 15.5026ZM 14.1905 16.6463C 14.5241 16.5033 14.6671 16.265 14.5241 16.0268C 14.4765 15.8838 14.1429 15.7885 13.9523 15.7885C 13.714 15.7885 13.4757 15.8838 13.2374 15.9791C 13.2374 15.9791 13.2374 15.9315 13.2374 15.8838C 13.3804 15.6932 13.4757 15.5979 13.5234 15.4549C 14.1429 14.5018 14.7147 13.5011 15.3342 12.548C 15.7631 11.8332 16.2397 11.1184 16.7162 10.4512C 17.1451 9.78404 17.574 9.06923 18.0029 8.40206C 18.3841 7.78256 18.813 7.2107 19.2419 6.5912C 19.7661 5.82873 20.2903 5.11391 20.7668 4.35144C 21.6246 3.06477 22.7683 1.96872 23.2925 0.443776C 23.4355 0.0148861 23.3402 -0.032769 23.0066 0.0148854C 22.5777 0.0148854 22.1488 0.0625402 21.7199 0.110195C 21.2434 0.157849 20.7668 0.157849 20.2903 0.205504C 19.1942 0.300813 18.0982 0.348466 17.0021 0.49143C 16.3826 0.539084 16.192 0.539085 15.5725 0.634394C 15.2389 0.682049 14.8577 0.729703 14.5241 0.777357C 14.0952 0.872666 13.3327 0.967974 12.9515 1.06328C 11.7125 1.34921 10.4258 1.68279 9.42509 2.49292C 8.56731 3.20773 7.70952 3.92255 6.94705 4.78033C 5.94631 5.87638 5.08853 7.06774 4.23075 8.30675C 3.56359 9.25984 2.94408 10.2606 2.37223 11.309C 1.89569 12.2144 1.51445 13.1198 1.08556 14.0729C 0.418402 15.5026 -0.153456 16.9799 0.0371613 18.6001C 0.13247 19.5055 0.418402 19.7915 1.32384 19.5532C 1.75273 19.4579 2.13396 19.3149 2.56285 19.172C 3.80186 18.6001 4.94557 17.8853 6.08928 17.0275C 6.75644 16.5033 6.99471 16.265 7.37595 15.8838C 7.9478 15.312 8.42434 14.9307 9.04385 14.3589C 9.85397 13.644 10.6164 12.9769 11.4266 12.2621C 11.5219 12.2144 11.3789 12.548 11.3313 12.691C 10.9024 13.4534 10.5211 14.1682 10.0922 14.8831C 9.80632 15.3596 9.6157 15.8838 9.32977 16.3603C 8.94854 17.1228 8.51965 17.8853 8.13841 18.6478C 8.0431 18.8384 8.09076 19.172 8.18607 19.3626C 8.28138 19.4579 8.61495 19.4102 8.85323 19.3626C 9.13915 19.2673 9.42508 19.0766 9.71101 18.886C 10.4258 18.5048 11.093 18.0759 11.8078 17.7423C 12.5703 17.3134 13.3804 16.9799 14.1905 16.6463Z"/>
<path id="path2_fill" d="M 4.76984 15.5026C 4.43626 15.4073 4.48392 14.8354 4.67454 14.3112C 4.91281 13.5011 5.3417 12.8816 5.72293 12.2144C 6.10417 11.4996 6.58071 10.7848 7.05726 10.1176C 7.29553 9.78404 8.72516 7.54428 9.34467 6.87712C 10.2024 5.92403 11.2032 4.97095 12.1563 4.35144C 12.6805 4.01786 12.9664 3.73193 13.5383 3.446C 13.7289 3.35069 14.2054 3.20773 14.3484 3.16008C 15.3015 2.8265 16.2069 2.68353 17.1123 2.87415C 17.16 2.87415 17.2553 2.87415 17.303 2.92181C 17.4936 2.96946 17.2076 3.25539 17.2076 3.25539C 13.3476 7.83021 5.24639 15.6932 4.76984 15.5026ZM 14.2054 16.6463C 14.539 16.5033 14.682 16.265 14.539 16.0268C 14.4913 15.8838 14.1578 15.7885 13.9671 15.7885C 13.7289 15.7885 13.4906 15.8838 13.2523 15.9791C 13.2523 15.9791 13.2523 15.9315 13.2523 15.8838C 13.3953 15.6932 13.4906 15.5979 13.5383 15.4549C 14.1578 14.5018 14.7296 13.5011 15.3491 12.548C 15.778 11.8332 16.2546 11.1184 16.7311 10.4512C 17.16 9.78404 17.5889 9.06923 18.0178 8.40206C 18.399 7.78256 18.8279 7.2107 19.2568 6.5912C 19.781 5.82873 20.3052 5.11391 20.7817 4.35144C 21.6395 3.06477 22.7832 1.96872 23.3074 0.443776C 23.4504 0.0148861 23.3551 -0.032769 23.0215 0.0148854C 22.5926 0.0148854 22.1637 0.0625402 21.7348 0.110195C 21.2583 0.157849 20.7817 0.157849 20.3052 0.205504C 19.2091 0.300813 18.1131 0.348466 17.017 0.49143C 16.3975 0.539084 16.2069 0.539085 15.5874 0.634394C 15.2538 0.682049 14.8726 0.729703 14.539 0.777357C 14.1101 0.872666 13.3476 0.967974 12.9664 1.06328C 11.7274 1.34921 10.4407 1.68279 9.43998 2.49292C 8.5822 3.20773 7.72442 3.92255 6.96195 4.78033C 5.96121 5.87638 5.10343 7.06774 4.24565 8.30675C 3.57849 9.25984 2.95897 10.2606 2.38712 11.309C 1.91058 12.2144 1.52934 13.1198 1.10045 14.0729C 0.433292 15.5026 -0.186213 16.9799 0.0520586 18.6001C 0.147367 19.5055 0.433292 19.7915 1.33873 19.5532C 1.76762 19.4579 2.14885 19.3149 2.57774 19.172C 3.81675 18.6001 4.96046 17.8853 6.10417 17.0275C 6.77133 16.5033 7.0096 16.265 7.39083 15.8838C 7.96269 15.312 8.43923 14.9307 9.05874 14.3589C 9.86886 13.644 10.6313 12.9769 11.4415 12.2621C 11.5368 12.2144 11.3938 12.548 11.3462 12.691C 10.9173 13.4534 10.536 14.1682 10.1071 14.8831C 9.82121 15.3596 9.63059 15.8838 9.34467 16.3603C 8.96343 17.1228 8.53454 17.8853 8.15331 18.6478C 8.058 18.8384 8.10565 19.172 8.20096 19.3626C 8.29627 19.4579 8.62985 19.4102 8.86812 19.3626C 9.15405 19.2673 9.43998 19.0766 9.7259 18.886C 10.4407 18.5048 11.1079 18.0759 11.8227 17.7423C 12.5852 17.3134 13.3953 16.9799 14.2054 16.6463Z"/>
<path id="path3_fill" d="M 7.10051 29.1168C 6.81458 29.1645 7.29113 28.3067 7.5294 27.8778L 8.48249 26.067C 9.38792 24.685 10.2934 23.3507 11.2464 21.9687C 11.4371 21.6828 11.6277 21.3968 11.8183 21.1586C 12.0566 20.825 12.2948 20.4914 12.5331 20.1578L 13.2003 19.2524C 13.6768 18.6805 14.1534 18.1563 14.6299 17.6321L 19.0141 11.723C 19.6336 10.8652 20.2531 9.95977 20.9203 9.14965C 21.6351 8.24421 22.3499 7.33878 23.0647 6.43335C 23.9702 5.33729 24.8756 4.19359 25.781 3.09754C 26.4005 2.33507 27.0677 1.62025 27.6396 0.905434C 27.7349 0.762471 27.8302 0.619507 27.8302 0.42889C 27.8778 0.0953088 27.7349 -9.08936e-08 27.5442 -9.08936e-08C 27.2583 -9.08936e-08 26.9724 0.0476544 26.6865 0.0953089C 25.7334 0.238272 24.8279 0.381235 23.8749 0.524199C 22.7788 0.714816 21.6828 0.905434 20.5867 1.09605C 20.2531 1.14371 20.1102 1.33432 20.1102 1.62025C 20.1102 1.90618 20.4437 1.85852 20.682 1.85852C 21.1586 1.85852 21.4445 1.81087 21.9687 1.81087C 21.7781 2.04914 21.6828 2.23976 21.5398 2.38272C 20.9679 3.09754 20.3484 3.81235 19.7766 4.52717C 18.9665 5.57557 18.1563 6.62396 17.3462 7.67236C 16.7267 8.48248 16.0595 9.29261 15.3924 10.1027C 14.7729 10.9129 14.1534 11.723 13.5339 12.5331C 12.5808 13.7245 11.6277 14.9635 10.7222 16.1548C 9.53088 17.6798 8.38718 19.2524 7.24347 20.825C 5.76619 22.8741 4.33655 24.9233 2.95458 27.02C 2.1921 28.1638 1.52494 29.3075 0.810126 30.4988C 0.5242 30.9754 0.285925 31.4519 0.047653 31.9285C -1.45572e-06 32.0714 -0.047653 32.405 0.0953103 32.5003C 0.190619 32.548 0.42889 32.4527 0.619508 32.405C 1.42963 32.1191 2.1921 31.8331 3.00223 31.5472C 4.09828 31.166 5.19433 30.7847 6.24273 30.4035C 6.95754 30.1176 8.38718 29.8793 8.43483 29.5934C 8.43483 28.8309 8.0536 28.8309 7.10051 29.1168Z"/>
<path id="path4_fill" d="M 20.3961 10.3238C 21.1109 9.65661 21.2539 9.08475 20.825 8.22698C 20.6344 7.75043 20.3008 7.60747 19.7766 7.75043C 19.5383 7.84574 19.2524 7.94105 19.0141 7.9887C 17.7274 8.41759 16.4884 8.79883 15.2018 9.13241C 14.5346 9.32303 13.2003 9.65661 13.105 9.65661C 12.962 9.65661 13.2479 9.27537 13.3432 9.22772C 13.9151 8.65586 14.5346 7.94105 15.1064 7.41685C 15.6306 6.94031 16.0595 6.55907 16.5361 5.98722C 17.8227 4.41462 19.3 3.50919 20.9203 2.31783C 21.5398 1.88894 22.1116 1.60301 22.5405 1.31709C 22.9218 1.07881 22.9218 0.554614 22.4929 0.411651C 22.064 0.268688 21.5874 0.221034 21.1109 0.125725C 19.8242 -0.0648922 19.1571 -0.0172378 18.1563 0.125725C 17.9181 0.17338 17.6321 0.268687 17.4415 0.459305C 17.1079 0.697577 16.8697 1.03116 16.5837 1.31709C 15.8213 2.12721 15.0111 2.93733 14.2487 3.74746C 13.105 4.93882 11.9613 6.08253 10.8175 7.32154C 10.198 7.9887 9.7215 8.70352 9.14964 9.37068C 8.6731 9.99019 8.24422 10.562 8.0536 11.3245C 7.91063 11.9917 8.29186 12.6588 8.91137 12.6112C 9.86446 12.5159 10.4363 12.3253 11.3894 12.1346C 11.866 12.0393 13.2956 11.6581 13.2479 11.7534C 13.3909 11.7057 13.0097 12.2299 12.2948 12.8018C 11.4847 13.469 10.6269 14.0885 9.81681 14.708C 9.00669 15.3275 8.19656 15.9946 7.33878 16.6142C 6.67162 17.1383 6.00445 17.6149 5.33729 18.0914C 4.24124 18.9016 3.19285 19.664 2.0968 20.4265C 1.62025 20.7601 1.0484 21.0937 0.667165 21.4749C 0.476547 21.7132 0.047653 22.428 -1.4543e-06 23.4287C -1.4543e-06 23.9529 0.142963 24.4771 0.619507 24.906C 1.0484 25.2396 1.19136 25.1919 1.5726 25.0013C 2.09679 24.8107 2.52568 24.4295 3.00223 24.0959C 4.09828 23.3811 5.14668 22.7139 6.19507 21.9991C 6.90989 21.5226 7.57705 20.903 8.29187 20.4265C 9.7215 19.3781 11.1511 18.2344 12.4378 16.9954C 12.9143 16.5665 13.3909 16.1376 13.8674 15.7087C 14.7252 14.9462 15.583 14.1361 16.4408 13.469C 17.8704 12.4682 19.1571 11.4675 20.3961 10.3238Z"/>
<path id="path5_fill" d="M 64.0092 0.0592173C 63.4374 -0.083746 62.9132 0.0592173 62.3413 0.202181C 61.15 0.535761 59.9586 0.916997 58.7672 1.34589C 57.8141 1.67947 56.8611 2.0607 55.9556 2.44194C 55.1455 2.77552 54.3354 3.20441 53.5252 3.58564C 52.2386 4.1575 50.9043 4.68169 49.6176 5.34886C 48.1403 6.06367 46.7583 6.92145 45.3287 7.68392C 43.9944 8.44639 42.66 9.20886 41.3257 9.92368C 40.2297 10.5432 39.0383 11.0674 37.9423 11.6869C 36.1314 12.7353 34.3205 13.879 32.5573 14.975C 32.1284 15.261 31.6995 15.5946 31.1753 15.6899C 30.8894 15.6899 25.0756 16.0234 19.7383 16.357C 19.5953 16.357 19.4523 16.357 19.3094 16.357C 19.2617 16.357 19.2617 16.357 19.2141 16.357C 15.4494 16.5953 12.0183 16.7859 10.9699 16.9289C 9.82616 17.0718 9.2543 17.1672 9.01603 17.2148C 8.06294 17.3101 7.49109 18.0249 6.77627 18.5491C 5.72788 19.3116 4.67948 20.0741 3.58343 20.8842C 2.48738 21.6943 1.34367 22.5521 0.24762 23.4099C 0.104656 23.5052 -0.0383069 23.7911 0.0093475 23.8864C 0.0570019 24.077 0.390583 24.1247 0.533546 24.1247C 0.5812 24.1247 0.5812 24.1247 0.628855 24.1247L 2.72565 23.7435L 6.72862 22.981L 12.7807 21.9802C 19.0235 20.6936 22.0257 20.6459 23.1694 20.7412C 23.0264 20.8365 22.8358 20.9795 22.6452 21.0748C 20.9773 22.1232 19.3094 23.1716 17.6415 24.22C 16.7837 24.7442 15.9259 25.1731 15.1158 25.6973C 13.9721 26.4121 12.876 27.1269 11.78 27.8894C 10.541 28.7472 9.30196 29.605 8.06294 30.4627C 7.77702 30.6533 7.44343 30.844 7.15751 31.0822C 6.44269 31.6064 5.72788 32.1306 5.06071 32.7025C 4.67948 32.9884 4.29824 33.322 3.96466 33.7032C 3.8217 33.8462 3.63108 34.0368 3.58343 34.2751L 3.58343 34.418C 3.58343 34.418 3.63108 34.6087 4.15528 34.5134C 4.3459 34.5134 4.53652 34.5134 4.63182 34.4657C 6.63331 34.4657 10.8269 34.418 11.4464 34.0845C 11.9706 33.7985 13.2096 32.9408 14.0197 32.3213C 14.5916 31.9877 15.0681 31.6064 15.5923 31.2252C 16.7837 30.2245 18.1657 29.605 19.4047 28.6995C 21.2156 27.3652 23.0741 26.1738 24.9326 24.9825C 27.4106 23.3622 29.8887 21.742 32.3667 20.1217C 32.8432 19.7881 33.3198 19.5022 33.7963 19.2639L 41.2304 18.6444C 41.4687 18.6444 41.707 18.6444 41.8976 18.5968L 42.0405 18.5968C 42.6124 18.4538 43.1366 18.1679 43.6608 17.6913C 44.4709 16.8812 45.281 16.0711 46.0912 15.261C 46.1865 15.1657 46.2818 14.9274 46.2818 14.8321C 46.2818 14.7844 46.0435 14.7368 45.8529 14.7844C 45.7576 14.7844 45.6146 14.7844 45.5193 14.8321L 39.6102 15.5469L 39.5625 15.5469C 40.325 15.0704 40.9921 14.6891 41.707 14.3079C 43.0889 13.4978 44.4709 12.7353 45.8052 11.9252C 46.5677 11.4486 47.2825 10.9244 48.045 10.4479C 49.8559 9.39948 51.6667 8.39874 53.4776 7.35034C 54.2877 6.92145 55.9556 6.06367 55.9556 6.11133C 56.0509 6.06367 52.2386 10.5432 51.0472 11.9728C 50.0941 13.1165 49.1887 14.2126 48.2356 15.3563C 47.5208 16.2141 46.806 17.0718 46.0912 17.9773C 45.3287 18.9304 44.5186 19.9311 43.7561 20.9319C 43.0413 21.8373 42.2788 22.7427 41.564 23.6481C 40.7539 24.6965 39.9914 25.7449 39.1813 26.7457C 38.4188 27.6988 37.6087 28.6519 36.8462 29.6526C 35.9408 30.844 35.1306 32.0353 34.2252 33.2267C 33.9869 33.5603 33.7487 33.9415 33.5104 34.2751C 33.4627 34.3704 33.2721 34.7516 33.3674 34.8469C 33.4627 34.9899 35.5595 34.2751 36.5603 33.9415C 37.561 33.6079 38.5618 33.2743 39.5625 32.9408C 40.6109 32.5595 41.2304 32.3689 42.2788 31.94C 42.7077 31.7494 43.1842 31.5588 43.5655 31.2729C 43.7084 31.1775 43.8514 30.844 43.8037 30.6533C 43.7561 30.3198 43.4702 30.2721 43.1842 30.3198C 42.66 30.3674 42.6124 30.3674 42.0882 30.4627C 41.5163 30.6057 41.9929 29.7956 42.2312 29.5096C 42.8983 28.6519 43.5178 27.6988 44.185 26.841C 44.8998 25.8879 45.6623 24.9825 46.3771 24.077C 46.9013 23.4099 47.3778 22.6951 47.902 22.0756C 48.3786 21.456 48.9504 20.8365 49.427 20.217C 50.0465 19.4069 50.666 18.5491 51.2855 17.7867C 51.8573 17.0718 52.4768 16.4047 53.0487 15.6899C 53.9541 14.5938 54.8119 13.4978 55.7174 12.4494C 56.7181 11.2103 57.7665 9.97133 58.8149 8.73232C 59.3867 8.0175 61.5788 4.6817 62.103 3.96688C 62.1507 3.91922 62.1984 3.87157 62.1984 3.77626C 62.1984 3.72861 62.246 3.72861 62.246 3.68095C 62.4843 3.39503 62.6749 3.15675 62.8655 2.87083C 63.3421 2.20367 63.771 1.48885 64.2475 0.821688C 64.5334 0.297489 64.3905 0.154526 64.0092 0.0592173Z"/>
</defs>
</svg>
