<svg viewBox="0 0 51 60" version="1.1" xmlns="http://www.w3.org/2000/svg" xmlns:xlink="http://www.w3.org/1999/xlink">
<title>UPS-logo</title>
<desc>Created using Figma</desc>
<g id="Canvas" transform="translate(-380 -1898)">
<g id="UPS-logo">
<g id="Vector">
<use xlink:href="#path0_fill" transform="matrix(1.25 0 0 -1.25 381.31 1956.37)" fill="#301506"/>
</g>
<g id="Vector">
<use xlink:href="#path1_fill" transform="translate(380 1898)" fill="#FAB80A"/>
</g>
</g>
</g>
<defs>
<path id="path0_fill" fill-rule="evenodd" d="M 1.77162e-06 32.3779L 0.174541 12.5672L 4.6254 7.06904L 17.9785 2.27729e-05L 34.3857 8.02908L 37.7894 16.1454L 37.4403 42.4147L 25.0475 42.7638L 12.1313 40.6693L 0.349605 33.8621L 1.77162e-06 32.3779Z"/>
<path id="path1_fill" d="M 25.2076 0.000491971C 15.4853 0.000491971 7.00468 1.88277 0 5.5947L 0 35.2704C 0 41.5147 2.34621 46.7363 6.78379 50.3739C 10.904 53.7537 23.6466 59.3235 25.2081 60C 26.6889 59.3555 39.5825 53.6996 43.6373 50.3739C 48.0725 46.7382 50.4193 41.5151 50.4193 35.2704L 50.4193 5.5947C 43.4136 1.88228 34.933 -2.33685e-11 25.2067 -2.33685e-11L 25.2076 0.000491971ZM 39.6037 5.74652C 42.503 5.78442 45.3498 5.96353 48.1017 6.21927L 48.1017 35.2702C 48.1017 40.8529 46.0759 45.3625 42.1673 48.5819C 38.6755 51.4575 28.1462 56.175 25.2081 57.4701C 22.2307 56.1575 11.675 51.3804 8.24593 48.5831C 4.36044 45.4187 2.31522 40.8021 2.31522 35.2713L 2.31522 18.2964C 13.481 8.05649 27.0397 5.58286 39.6027 5.74718L 39.6037 5.74652ZM 25.8649 19.2738C 23.4727 19.2738 21.5426 19.8085 19.9536 20.8342L 19.9536 49.4167L 24.341 49.4167L 24.341 40.1826C 24.7788 40.3118 25.4143 40.4325 26.3146 40.4325C 31.1814 40.4325 33.9787 36.0453 33.9787 29.6396C 33.9787 23.2464 31.0984 19.2738 25.865 19.2738L 25.8649 19.2738ZM 40.8562 19.2738C 37.9708 19.3574 34.9534 21.4476 34.9718 24.9909C 34.9791 27.3241 35.6259 29.0689 39.2419 31.1906C 41.1716 32.3233 41.9491 33.0697 41.9823 34.446C 42.0192 35.9761 40.9621 36.8986 39.3534 36.8924C 37.9537 36.8813 36.2805 36.1046 35.1601 35.1071L 35.1601 39.1447C 36.5339 39.9638 38.2481 40.5053 39.9798 40.5053C 44.3141 40.5053 46.2495 37.4436 46.3331 34.6381C 46.4155 32.081 45.709 30.1462 42.0437 27.9927C 40.4079 27.0333 39.1161 26.4028 39.1592 24.8064C 39.2023 23.248 40.496 22.7005 41.7382 22.7116C 43.2707 22.7252 44.7531 23.5739 45.6682 24.5124L 45.6682 20.6996C 44.897 20.1055 43.2643 19.1999 40.8561 19.2737L 40.8562 19.2738ZM 4.55565 19.7177L 4.55565 33.5047C 4.55565 38.1526 6.75427 40.5056 11.0935 40.5056C 13.7784 40.5056 16.0272 39.8842 17.7024 38.7453L 17.7024 19.7178L 13.3246 19.7178L 13.3246 36.249C 12.8474 36.5761 12.1396 36.7852 11.2491 36.7852C 9.23941 36.7852 8.93911 34.9422 8.93911 33.6988L 8.93911 19.718L 4.55555 19.718L 4.55565 19.7177ZM 25.8944 22.806C 28.4391 22.806 29.4939 24.8376 29.4939 29.7512C 29.4939 34.5455 28.2875 36.8618 25.7637 36.8618C 25.1697 36.8618 24.6534 36.7147 24.3397 36.5966L 24.3397 23.1235C 24.6951 22.9464 25.2991 22.8064 25.8944 22.8064L 25.8944 22.806Z"/>
</defs>
</svg>
