<svg viewBox="0 0 158 30" version="1.1" xmlns="http://www.w3.org/2000/svg" xmlns:xlink="http://www.w3.org/1999/xlink">
<title>Raygun-logo</title>
<desc>Created using Figma</desc>
<g id="Canvas" transform="translate(-955 -1863)">
<g id="Raygun-logo">
<g id="Vector">
<use xlink:href="#path0_fill" transform="translate(955 1863.27)" fill="#283140"/>
</g>
<g id="Vector">
<use xlink:href="#path1_fill" transform="translate(1004.15 1863.4)" fill="#283140"/>
</g>
<g id="Vector">
<use xlink:href="#path2_fill" transform="translate(1031.47 1863)" fill="#283140"/>
</g>
<g id="Vector">
<use xlink:href="#path3_fill" transform="translate(1060.94 1863.27)" fill="#283140"/>
</g>
<g id="Vector">
<use xlink:href="#path4_fill" transform="translate(1089.06 1863.27)" fill="#283140"/>
</g>
<g id="Group">
<g id="Vector">
<use xlink:href="#path5_fill" transform="translate(983.661 1863.27)" fill="#283140"/>
</g>
<g id="Vector">
<use xlink:href="#path6_fill" transform="translate(997.321 1886.04)" fill="#283140"/>
</g>
<g id="Vector">
<use xlink:href="#path7_fill" transform="translate(979.777 1886.04)" fill="#283140"/>
</g>
</g>
</g>
</g>
<defs>
<path id="path0_fill" d="M 4.6875 18.75L 4.6875 29.4643L 0 29.4643C 0 29.4643 0 2.54464 0 1.33929C 0 0 1.33929 0 1.33929 0L 8.16964 0C 11.9196 0 14.7321 0.803571 16.4732 2.14286C 18.2143 3.48214 19.1518 5.75893 19.1518 8.57143C 19.1518 12.1875 16.7411 16.7411 12.4554 16.7411L 21.6964 29.3304L 15.5357 29.3304L 8.70536 18.75L 4.6875 18.75ZM 4.6875 13.3929L 7.76786 13.6607C 10.0446 13.6607 11.6518 13.2589 12.5893 12.4554C 13.5268 11.6518 14.4643 10.7143 14.4643 9.10714C 14.4643 7.5 13.6607 6.29464 12.5893 5.49107C 11.5179 4.6875 10.0446 4.6875 7.76786 4.6875L 4.6875 4.6875L 4.6875 13.3929Z"/>
<path id="path1_fill" d="M 12.5893 13.9286L 19.9554 3.19311e-08L 25.1786 3.19311e-08L 15.1339 18.75L 15.1339 29.1964L 9.91071 29.1964L 9.91071 18.75L 1.02179e-06 3.19311e-08L 5.22321 3.19311e-08L 12.5893 13.9286Z"/>
<path id="path2_fill" d="M 23.8393 17.6786L 23.8393 26.7857C 23.8393 28.5268 20.8929 29.1964 19.2857 29.4643C 17.6786 29.7321 15.9375 30 14.0625 30C 9.64286 30 6.29464 28.6607 3.88393 26.1161C 1.47321 23.5714 -2.04359e-06 19.8214 -2.04359e-06 15C -2.04359e-06 10.3125 1.74107 6.69643 4.41965 4.01786C 7.09822 1.33929 10.8482 1.59655e-08 15.5357 1.59655e-08C 18.6161 1.59655e-08 21.5625 1.33929 23.7054 2.8125L 21.2946 6.5625C 19.0179 5.08929 17.4107 4.6875 15 4.6875C 11.9196 4.6875 9.77679 5.49107 8.03571 7.5C 6.16071 9.50893 5.35714 11.7857 5.35714 15.1339C 5.35714 18.75 6.16072 20.7589 7.76786 22.6339C 9.375 24.5089 11.7857 25.1786 14.7321 25.1786C 16.3393 25.1786 17.0089 24.7768 18.8839 24.5089L 18.8839 17.8125L 23.8393 17.8125L 23.8393 17.6786Z"/>
<path id="path3_fill" d="M 22.5 0L 22.5 17.9464C 22.5 20.0893 22.3661 22.9018 21.4286 24.6429C 20.4911 26.3839 19.1518 27.4554 17.4107 28.3929C 15.6696 29.3304 13.5268 29.4643 11.1161 29.4643C 7.5 29.4643 4.6875 28.6607 2.67857 26.7857C 0.669641 24.9107 -2.04359e-06 21.2946 -2.04359e-06 17.9464L -2.04359e-06 0L 4.82142 0L 4.82142 17.9464C 4.82142 20.3571 4.95535 21.9643 6.16071 23.1696C 7.23214 24.375 8.97321 24.9107 11.25 24.9107C 15.8036 24.9107 17.6786 22.2321 17.6786 17.5446L 17.6786 0L 22.5 0Z"/>
<path id="path4_fill" d="M 23.7054 29.4643L 18.6161 29.4643L 4.6875 6.42857L 4.6875 29.4643L -2.04359e-06 29.4643L -2.04359e-06 0L 5.49107 0L 19.4196 21.1607L 19.4196 0L 23.8393 0L 23.8393 29.4643L 23.7054 29.4643Z"/>
<path id="path5_fill" d="M 11.6518 0L 9.24107 0L 8.70536 0L 6.16072 0L -5.10897e-07 17.2768L 5.49107 17.2768L 5.89286 16.2054C 6.96429 12.9911 8.30357 7.76786 8.97322 5.49107C 9.50893 7.76786 10.9821 12.8571 12.0536 16.2054L 12.4554 17.2768L 17.9464 17.2768L 11.6518 0Z"/>
<path id="path6_fill" d="M 5.49107 0L -2.04359e-06 0L 2.00893 6.69643L 8.03571 6.69643L 5.49107 0Z"/>
<path id="path7_fill" d="M 2.67857 0L 8.03572 0L 6.02679 6.69643L 0 6.69643L 2.67857 0Z"/>
</defs>
</svg>
